<svg width="109" height="32" viewBox="0 0 109 32" fill="none" xmlns="http://www.w3.org/2000/svg">
<rect x="0.5" y="0.5" width="108" height="31" rx="14.5" fill="white" stroke="#165C7D"/>
<path d="M24.1711 20.6954C23.8033 21.86 23.1904 22.3197 22.3017 22.3197C21.413 22.3197 20.8307 21.8906 20.4323 20.6954L17 10.1227H19.6049L22.3323 19.439L25.0905 10.1227H27.6034L24.1711 20.6954Z" fill="#165C7D"/>
<path d="M29.1973 10.1227H31.6489V22.1971H29.1973V10.1227Z" fill="#165C7D"/>
<path d="M33.2112 22.2273L36.7967 11.7158C37.1951 10.5206 37.8387 10.0303 38.7887 10.0303C39.6774 10.0303 40.3823 10.5512 40.75 11.7158L44.2743 22.2273H41.6694L40.75 19.224H36.6435L35.7548 22.2273H33.2112ZM40.1677 17.3546L38.6661 12.4819L37.1951 17.3546H40.1677Z" fill="#165C7D"/>
<path d="M53.2846 21.9821C52.4878 22.1966 51.3845 22.3498 50.1281 22.3498C46.1135 22.3498 45.1328 20.4804 45.1328 16.1901C45.1328 11.8997 46.1135 10.0303 50.1281 10.0303C51.3845 10.0303 52.4878 10.1835 53.2846 10.398L53.07 12.2981C52.2733 12.1755 51.4458 12.0835 50.5877 12.0835C47.6764 12.0835 47.6458 13.8303 47.6458 16.1901C47.6458 18.5804 47.6764 20.2966 50.5877 20.2966C51.4458 20.2966 52.3039 20.2353 53.07 20.0821L53.2846 21.9821Z" fill="#165C7D"/>
<path d="M57.4521 22.2276H55.0005V10.3371C56.0424 10.1532 57.4828 10 58.9231 10C61.5893 10 63.7652 10.521 63.7652 13.8001C63.7652 15.9453 62.8764 16.9566 61.4361 17.3856L64.1942 22.2276H61.3748L58.8925 17.6614C58.4022 17.6614 57.8505 17.6308 57.4215 17.6001V22.2276H57.4521ZM57.4521 15.6694C57.9425 15.7307 58.4328 15.7307 58.9538 15.7307C60.4861 15.7307 61.3748 15.3323 61.3748 13.8001C61.3748 12.4517 60.7619 11.9307 59.0151 11.9307C58.5247 11.9307 57.9731 11.9613 57.4828 12.0226V15.6694H57.4521Z" fill="#165C7D"/>
<path d="M73.2041 12.0827H69.8637C68.4234 12.0827 68.1782 12.3892 68.1782 13.7069V15.086H72.9896V17.0473H68.1782V18.6103C68.1782 19.9587 68.4234 20.2651 69.8637 20.2651H73.2041V22.1652C72.346 22.1958 70.7218 22.2571 69.925 22.2571C67.7492 22.2571 65.7266 22.1345 65.7266 19.3151V13.0327C65.7266 10.2133 67.7492 10.0908 69.925 10.0908C70.8137 10.0908 72.3767 10.1521 73.2041 10.1827V12.0827Z" fill="#165C7D"/>
<path d="M75.4414 10.3674C76.4834 10.1835 77.9543 10.0303 79.364 10.0303C83.8996 10.0303 84.6964 12.0835 84.6964 16.1901C84.6964 20.2966 83.8996 22.3498 79.364 22.3498C77.9237 22.3498 76.4527 22.1966 75.4414 22.0127V10.3674ZM77.8931 12.1142V20.2659C78.1995 20.3272 78.5979 20.3579 79.0269 20.3579C82.2141 20.3579 82.2447 18.5498 82.2447 16.1901C82.2447 13.8303 82.2141 12.0222 79.0269 12.0222C78.5979 12.0222 78.2302 12.0529 77.8931 12.1142Z" fill="#165C7D"/>
<path d="M86.8413 10.1227H89.293V22.1971H86.8413V10.1227Z" fill="#165C7D"/>
</svg>
