<?xml version="1.0" encoding="utf-8"?>
<!DOCTYPE svg PUBLIC "-//W3C//DTD SVG 1.1//EN" "http://www.w3.org/Graphics/SVG/1.1/DTD/svg11.dtd">
<svg version="1.1" fill="white" xmlns="http://www.w3.org/2000/svg" xmlns:xlink="http://www.w3.org/1999/xlink" x="0px" y="0px" viewBox="0 0 1000 1000" enable-background="new 0 0 1000 1000" xml:space="preserve">
<metadata> Svg Vector Icons : http://www.onlinewebfonts.com/icon </metadata>
<g><g transform="translate(0.000000,512.000000) scale(0.100000,-0.100000)"><path d="M1066.6,4990.1C699.1,4911.6,371.8,4647.5,213,4303C94.3,4040.7,100,4262.8,100,120.8c0-3366.8,3.8-3787.9,30.6-3918c78.5-380.9,317.7-689.1,668-857.5c273.7-132.1,21.1-124.4,4201.3-124.4c4180.3,0,3927.6-7.7,4201.3,124.4c350.3,168.4,589.5,476.6,668,857.5c26.8,130.2,30.6,551.2,30.6,3918c0,4180.3,7.7,3927.6-124.4,4201.3c-168.4,350.3-476.6,589.5-857.5,668c-130.1,26.8-549.3,30.6-3931.4,28.7C1715.5,5016.9,1181.5,5013.1,1066.6,4990.1z M8933.3,4352.7c120.6-61.3,237.3-178,298.6-298.6l45.9-95.7V120.8v-3837.7l-47.8-95.7c-59.3-122.5-174.2-237.4-296.7-296.7l-95.7-47.9H5000H1162.3l-95.7,45.9c-120.6,61.2-237.3,178-298.6,298.6l-45.9,95.7L716.4,72.9c-3.8,2679.6,1.9,3814.7,15.3,3875.9c45.9,185.7,222,373.2,409.6,432.6c63.2,19.1,823,23,3887.4,21.1l3808.9-3.8L8933.3,4352.7z"/><path d="M3518.5,3765.1c-369.4-80.4-673.7-323.5-842.2-675.7c-34.5-72.7-68.9-151.2-74.6-174.2c-9.6-36.4-23-38.3-367.5-38.3c-401.9,0-451.7-11.5-541.7-130.1c-74.7-97.6-74.7-254.6,0-352.2c90-118.7,139.7-130.2,541.7-130.2c344.5,0,357.9-1.9,367.5-38.3c24.9-93.8,147.4-317.7,229.7-424.9c216.3-273.7,591.4-455.5,943.6-455.5c352.2,0,727.3,181.8,943.6,455.5c82.3,107.2,204.8,331.1,229.7,424.9c9.6,38.3,13.4,38.3,1592.5,38.3c1760.9,0,1661.4-7.7,1766.6,130.2c74.7,97.6,74.7,254.6,0,352.2c-105.3,137.8-3.8,130.1-1774.3,130.1c-1512.1,0-1590.6,1.9-1590.6,34.5c0,59.3-130.2,310.1-224,428.8C4441.1,3692.4,3966.4,3860.8,3518.5,3765.1z M4035.3,3125.8c118.7-57.4,235.4-176.1,296.7-296.7c67-135.9,65.1-379-1.9-516.8c-59.3-122.5-174.2-237.3-296.7-296.7c-137.8-67-380.9-68.9-516.8-1.9c-340.7,168.4-455.5,581.9-248.8,895.8c72.7,109.1,201,208.6,323.5,246.9C3708,3194.7,3920.5,3179.4,4035.3,3125.8z"/><path d="M6014.4,1326.6c-365.6-63.2-698.6-312-865.1-645c-47.9-91.9-90-187.6-95.7-210.5l-11.5-44H3459.2c-1760.9,0-1661.4,7.7-1766.7-130.1c-74.7-97.6-74.7-254.6,0-352.2c105.3-137.8,5.7-130.1,1766.7-130.1h1582.9l9.6-40.2c24.9-88.1,158.9-338.8,233.5-432.6c164.6-202.9,424.9-359.8,696.7-415.3c183.8-38.3,302.4-38.3,486.2,0c379,78.5,683.3,317.7,855.6,675.7c34.5,72.7,68.9,151.2,74.6,174.2c9.6,36.4,23,38.3,367.5,38.3c402,0,451.7,11.5,541.7,130.1c74.7,97.6,74.7,254.6,0,352.2c-90,118.7-139.7,130.1-541.7,130.1c-346.4,0-357.9,1.9-367.5,40.2c-24.9,88-158.9,338.8-233.5,432.6C6902.5,1227.1,6437.4,1399.4,6014.4,1326.6z M6485.3,675.9c118.7-57.4,235.4-176.1,296.7-296.7c67-135.9,65.1-379-1.9-516.8c-59.3-122.5-174.2-237.3-296.7-296.7c-137.8-67-380.9-68.9-516.8-1.9c-340.7,168.4-455.5,581.9-248.8,895.8c72.7,109.1,201,208.6,323.5,246.9C6158,744.8,6370.4,729.4,6485.3,675.9z"/><path d="M3564.5-1123.3c-424.9-72.7-800.1-398.1-945.5-817.3l-24.9-72.7l-384.7-9.6c-419.2-9.6-434.5-13.4-528.3-141.6c-61.3-82.3-55.5-252.7,11.5-340.7c90-118.7,139.7-130.2,541.7-130.2c346.4,0,357.9-1.9,367.5-40.2c24.9-88.1,158.9-338.8,233.5-432.6c164.6-202.9,424.9-359.8,696.7-415.4c183.8-38.3,302.4-38.3,486.2,0c379,78.5,683.3,317.7,855.6,675.7c34.5,72.7,68.9,151.2,74.6,174.2c9.6,38.3,13.4,38.3,1592.5,38.3c1760.9,0,1661.4-7.7,1766.6,130.2c74.7,97.6,74.7,254.6,0,352.2c-105.3,137.8-5.7,130.1-1766.6,130.1H4957.9l-9.6,40.2c-24.9,88-158.9,338.8-233.5,432.6C4452.6-1222.9,3987.5-1050.6,3564.5-1123.3z M4035.3-1774.1c118.7-57.4,235.4-176.1,296.7-296.7c67-135.9,65.1-379-1.9-516.8c-59.3-122.5-174.2-237.3-296.7-296.7c-137.8-67-380.9-68.9-516.8-1.9c-340.7,168.4-455.5,581.9-248.8,895.8c72.7,109.1,201,208.6,323.5,246.9C3708-1705.2,3920.5-1720.5,4035.3-1774.1z"/></g></g>
</svg>