<svg width="70" height="62" viewBox="0 0 70 62" fill="none" xmlns="http://www.w3.org/2000/svg">
<path fill-rule="evenodd" clip-rule="evenodd" d="M35 3.47477L3.118 58.8539H66.882L35 3.47477ZM35.7502 0.434347C35.4168 -0.144781 34.5832 -0.144783 34.2498 0.434345L0.117344 59.7226C-0.216063 60.3017 0.200693 61.0256 0.867506 61.0256H69.1325C69.7993 61.0256 70.2161 60.3017 69.8827 59.7226L35.7502 0.434347Z" fill="#889499"/>
<path d="M34.6759 44.2477C34.1132 44.2477 33.6542 43.8733 33.644 43.406L33.2242 24.2063C33.2137 23.7269 33.6788 23.3335 34.2561 23.3335H35.7627C36.3415 23.3335 36.8072 23.7288 36.7946 24.2094L36.2908 43.4091C36.2786 43.8751 35.8202 44.2477 35.2589 44.2477H34.6759ZM33.9367 52.0514C33.449 52.0514 33.2051 51.8433 33.2051 51.4271V49.9083C33.2051 49.4921 33.449 49.284 33.9367 49.284H35.9945C36.4822 49.284 36.7261 49.4921 36.7261 49.9083V51.4271C36.7261 51.8433 36.4822 52.0514 35.9945 52.0514H33.9367Z" fill="#889499"/>
</svg>
